<svg xmlns="http://www.w3.org/2000/svg" xmlns:xlink="http://www.w3.org/1999/xlink" xmlns:lucid="lucid" width="4139.34" height="372.09"><g transform="translate(518.6029002054863 -808.5848130542162)" lucid:page-tab-id="0_0"><path d="M-517.6 862.84a6 6 0 0 1 6-6h4125.34a6 6 0 0 1 6 6v310.84a6 6 0 0 1-6 6H-511.6a6 6 0 0 1-6-6z" stroke="#3a414a" stroke-width="2" fill="#fff"/><path d="M-517.6 814.6a6 6 0 0 1 6-6h374.06a6 6 0 0 1 6 6v24.24a6 6 0 0 1-6 6H-511.6a6 6 0 0 1-6-6z" fill="#3a414a"/><use xlink:href="#a" transform="matrix(1,0,0,1,-509.6029002054863,816.5848130542162) translate(0 16.589501953125)"/><use xlink:href="#b" transform="matrix(1,0,0,1,-509.6029002054863,816.5848130542162) translate(49.84400390625 16.589501953125)"/><use xlink:href="#c" transform="matrix(1,0,0,1,-509.6029002054863,816.5848130542162) translate(158.179921875 16.589501953125)"/><use xlink:href="#d" transform="matrix(1,0,0,1,-509.6029002054863,816.5848130542162) translate(221.608828125 16.589501953125)"/><use xlink:href="#e" transform="matrix(1,0,0,1,-509.6029002054863,816.5848130542162) translate(294.9444140625 16.589501953125)"/><path d="M-317.6 978.26c22.1 0 40 17.9 40 40s-17.9 40-40 40h-80c-22.1 0-40-17.9-40-40s17.9-40 40-40z" stroke="#e08fff" stroke-width="2" fill="#f4d9ff"/><use xlink:href="#f" transform="matrix(1,0,0,1,-432.6029002054863,983.2593387219492) translate(49.951171875 43.40277777777778)"/><path d="M22.4 963.26a6 6 0 0 1 6-6h150a6 6 0 0 1 6 6v110a6 6 0 0 1-6 6h-150a6 6 0 0 1-6-6z" stroke="#ff80df" stroke-width="2" fill="#fff0fb"/><use xlink:href="#g" transform="matrix(1,0,0,1,34.39709979451368,969.2593387219492) translate(7.292100694444443 24.59027777777778)"/><use xlink:href="#h" transform="matrix(1,0,0,1,34.39709979451368,969.2593387219492) translate(49.03472222222222 24.59027777777778)"/><use xlink:href="#i" transform="matrix(1,0,0,1,34.39709979451368,969.2593387219492) translate(13.303385416666671 56.85590277777778)"/><use xlink:href="#j" transform="matrix(1,0,0,1,34.39709979451368,969.2593387219492) translate(68.44661458333334 56.85590277777778)"/><use xlink:href="#k" transform="matrix(1,0,0,1,34.39709979451368,969.2593387219492) translate(16.91666666666667 89.12152777777777)"/><path d="M484.4 942.84a6 6 0 0 1 6-6h191.1a6 6 0 0 1 6 6v150.84a6 6 0 0 1-6 6H490.4a6 6 0 0 1-6-6z" stroke="#ff80df" stroke-width="2" fill="#fff0fb"/><use xlink:href="#l" transform="matrix(1,0,0,1,496.3970997945137,948.8395591479662) translate(31.09700520833335 30.21527777777778)"/><use xlink:href="#m" transform="matrix(1,0,0,1,496.3970997945137,948.8395591479662) translate(16.60590277777777 62.48090277777778)"/><use xlink:href="#n" transform="matrix(1,0,0,1,496.3970997945137,948.8395591479662) translate(105.27777777777777 62.48090277777778)"/><use xlink:href="#o" transform="matrix(1,0,0,1,496.3970997945137,948.8395591479662) translate(124.1796875 62.48090277777778)"/><use xlink:href="#p" transform="matrix(1,0,0,1,496.3970997945137,948.8395591479662) translate(16.05794270833333 94.74652777777777)"/><use xlink:href="#q" transform="matrix(1,0,0,1,496.3970997945137,948.8395591479662) translate(82.93077256944444 94.74652777777777)"/><use xlink:href="#r" transform="matrix(1,0,0,1,496.3970997945137,948.8395591479662) translate(145.43077256944446 94.74652777777777)"/><use xlink:href="#s" transform="matrix(1,0,0,1,496.3970997945137,948.8395591479662) translate(68.09244791666667 127.01215277777777)"/><path d="M987.5 942.84a6 6 0 0 1 6-6h191.13a6 6 0 0 1 6 6v150.84a6 6 0 0 1-6 6H993.5a6 6 0 0 1-6-6z" stroke="#ff80df" stroke-width="2" fill="#fff0fb"/><use xlink:href="#t" transform="matrix(1,0,0,1,999.5119242368949,948.8395591479662) translate(21.20659722222223 43.24652777777778)"/><use xlink:href="#u" transform="matrix(1,0,0,1,999.5119242368949,948.8395591479662) translate(81.40625 43.24652777777778)"/><use xlink:href="#v" transform="matrix(1,0,0,1,999.5119242368949,948.8395591479662) translate(26.583116319444443 75.51215277777777)"/><use xlink:href="#j" transform="matrix(1,0,0,1,999.5119242368949,948.8395591479662) translate(97.16688368055556 75.51215277777777)"/><use xlink:href="#w" transform="matrix(1,0,0,1,999.5119242368949,948.8395591479662) translate(50.02061631944444 107.77777777777777)"/><path d="M1490.63 963.26a6 6 0 0 1 6-6h150a6 6 0 0 1 6 6v110a6 6 0 0 1-6 6h-150a6 6 0 0 1-6-6z" stroke="#ff80df" stroke-width="2" fill="#fff0fb"/><use xlink:href="#x" transform="matrix(1,0,0,1,1502.626748679276,969.2593387219492) translate(8.111328125 24.59027777777778)"/><use xlink:href="#y" transform="matrix(1,0,0,1,1502.626748679276,969.2593387219492) translate(62.527560763888886 24.59027777777778)"/><use xlink:href="#z" transform="matrix(1,0,0,1,1502.626748679276,969.2593387219492) translate(16.992621527777786 56.85590277777778)"/><use xlink:href="#u" transform="matrix(1,0,0,1,1502.626748679276,969.2593387219492) translate(43.62022569444445 56.85590277777778)"/><use xlink:href="#A" transform="matrix(1,0,0,1,1502.626748679276,969.2593387219492) translate(40.03407118055556 89.12152777777777)"/><path d="M1952.63 942.84a6 6 0 0 1 6-6h191.1a6 6 0 0 1 6 6v150.84a6 6 0 0 1-6 6h-191.1a6 6 0 0 1-6-6z" stroke="#ff80df" stroke-width="2" fill="#fff0fb"/><use xlink:href="#B" transform="matrix(1,0,0,1,1964.626748679276,948.8395591479662) translate(5.749782986111114 60.62152777777778)"/><use xlink:href="#C" transform="matrix(1,0,0,1,1964.626748679276,948.8395591479662) translate(46.60264756944444 60.62152777777778)"/><use xlink:href="#D" transform="matrix(1,0,0,1,1964.626748679276,948.8395591479662) translate(147.79622395833334 60.62152777777778)"/><use xlink:href="#E" transform="matrix(1,0,0,1,1964.626748679276,948.8395591479662) translate(2.1744791666666714 92.88715277777777)"/><use xlink:href="#F" transform="matrix(1,0,0,1,1964.626748679276,948.8395591479662) translate(112.02690972222221 92.88715277777777)"/><path d="M2455.74 963.26a6 6 0 0 1 6-6h150a6 6 0 0 1 6 6v110a6 6 0 0 1-6 6h-150a6 6 0 0 1-6-6z" stroke="#ff80df" stroke-width="2" fill="#fff0fb"/><use xlink:href="#G" transform="matrix(1,0,0,1,2467.741573121657,969.2593387219492) translate(14.827907986111107 24.59027777777778)"/><use xlink:href="#H" transform="matrix(1,0,0,1,2467.741573121657,969.2593387219492) translate(11.355685763888893 56.85590277777778)"/><use xlink:href="#z" transform="matrix(1,0,0,1,2467.741573121657,969.2593387219492) translate(22.786892361111114 89.12152777777777)"/><use xlink:href="#F" transform="matrix(1,0,0,1,2467.741573121657,969.2593387219492) translate(49.41449652777778 89.12152777777777)"/><path d="M2917.74 963.26a6 6 0 0 1 6-6h150a6 6 0 0 1 6 6v110a6 6 0 0 1-6 6h-150a6 6 0 0 1-6-6z" stroke="#ff80df" stroke-width="2" fill="#fff0fb"/><use xlink:href="#I" transform="matrix(1,0,0,1,2929.741573121657,969.2593387219492) translate(11.464192708333336 24.59027777777778)"/><use xlink:href="#j" transform="matrix(1,0,0,1,2929.741573121657,969.2593387219492) translate(70.28580729166667 24.59027777777778)"/><use xlink:href="#J" transform="matrix(1,0,0,1,2929.741573121657,969.2593387219492) translate(6.147352430555557 56.85590277777778)"/><use xlink:href="#K" transform="matrix(1,0,0,1,2929.741573121657,969.2593387219492) translate(61.409939236111114 56.85590277777778)"/><use xlink:href="#L" transform="matrix(1,0,0,1,2929.741573121657,969.2593387219492) translate(111.47504340277779 56.85590277777778)"/><use xlink:href="#M" transform="matrix(1,0,0,1,2929.741573121657,969.2593387219492) translate(16.970920138888893 89.12152777777777)"/><path d="M3499.74 978.26c22.1 0 40 17.9 40 40s-17.9 40-40 40h-80c-22.1 0-40-17.9-40-40s17.9-40 40-40z" stroke="#e08fff" stroke-width="2" fill="#f4d9ff"/><use xlink:href="#N" transform="matrix(1,0,0,1,3384.741573121657,983.2593387219492) translate(54.95334201388889 43.40277777777778)"/><path d="M-276.1 1018.26H5" stroke="#3a414a" fill="none"/><path d="M-276.1 1018.73h-.53l.03-.46-.02-.5h.53z" stroke="#3a414a" stroke-width=".05" fill="#3a414a"/><path d="M19.78 1018.26L5.5 1022.9v-9.28z" stroke="#3a414a" fill="#3a414a"/><path d="M185.9 1018.26H467" stroke="#3a414a" fill="none"/><path d="M185.9 1018.73h-.5v-.95h.5z" stroke="#3a414a" stroke-width=".05" fill="#3a414a"/><path d="M481.78 1018.26l-14.27 4.63v-9.28z" stroke="#3a414a" fill="#3a414a"/><path d="M689 1018.26h281.13" stroke="#3a414a" fill="none"/><path d="M689.02 1018.73h-.5v-.95h.5z" stroke="#3a414a" stroke-width=".05" fill="#3a414a"/><path d="M984.9 1018.26l-14.27 4.63v-9.28z" stroke="#3a414a" fill="#3a414a"/><path d="M1192.13 1018.26h281.1" stroke="#3a414a" fill="none"/><path d="M1192.14 1018.73h-.5v-.95h.5z" stroke="#3a414a" stroke-width=".05" fill="#3a414a"/><path d="M1488 1018.26l-14.26 4.63v-9.28z" stroke="#3a414a" fill="#3a414a"/><path d="M1654.13 1018.26h281.1" stroke="#3a414a" fill="none"/><path d="M1654.14 1018.73h-.5v-.95h.5z" stroke="#3a414a" stroke-width=".05" fill="#3a414a"/><path d="M1950 1018.26l-14.26 4.63v-9.28z" stroke="#3a414a" fill="#3a414a"/><path d="M2157.24 1018.26h281.12" stroke="#3a414a" fill="none"/><path d="M2157.25 1018.73h-.5v-.95h.5z" stroke="#3a414a" stroke-width=".05" fill="#3a414a"/><path d="M2453.12 1018.26l-14.26 4.63v-9.28z" stroke="#3a414a" fill="#3a414a"/><path d="M2619.24 1018.26h281.12" stroke="#3a414a" fill="none"/><path d="M2619.25 1018.73h-.5v-.95h.5z" stroke="#3a414a" stroke-width=".05" fill="#3a414a"/><path d="M2915.12 1018.26l-14.26 4.63v-9.28z" stroke="#3a414a" fill="#3a414a"/><path d="M3081.24 1018.26h281.12" stroke="#3a414a" fill="none"/><path d="M3081.25 1018.73h-.5v-.95h.5z" stroke="#3a414a" stroke-width=".05" fill="#3a414a"/><path d="M3377.12 1018.26l-14.26 4.63v-9.28z" stroke="#3a414a" fill="#3a414a"/><path d="M-517.6 862.84a6 6 0 0 1 6-6h4125.34a6 6 0 0 1 6 6v310.84a6 6 0 0 1-6 6H-511.6a6 6 0 0 1-6-6z" stroke="#3a414a" stroke-width="2" fill="#fff"/><path d="M-517.6 814.6a6 6 0 0 1 6-6h374.06a6 6 0 0 1 6 6v24.24a6 6 0 0 1-6 6H-511.6a6 6 0 0 1-6-6z" fill="#3a414a"/><use xlink:href="#a" transform="matrix(1,0,0,1,-509.6029002054863,816.5848130542162) translate(0 16.589501953125)"/><use xlink:href="#b" transform="matrix(1,0,0,1,-509.6029002054863,816.5848130542162) translate(49.84400390625 16.589501953125)"/><use xlink:href="#c" transform="matrix(1,0,0,1,-509.6029002054863,816.5848130542162) translate(158.179921875 16.589501953125)"/><use xlink:href="#d" transform="matrix(1,0,0,1,-509.6029002054863,816.5848130542162) translate(221.608828125 16.589501953125)"/><use xlink:href="#e" transform="matrix(1,0,0,1,-509.6029002054863,816.5848130542162) translate(294.9444140625 16.589501953125)"/><path d="M-317.6 978.26c22.1 0 40 17.9 40 40s-17.9 40-40 40h-80c-22.1 0-40-17.9-40-40s17.9-40 40-40z" stroke="#e08fff" stroke-width="2" fill="#f4d9ff"/><use xlink:href="#f" transform="matrix(1,0,0,1,-432.6029002054863,983.2593387219492) translate(49.951171875 43.40277777777778)"/><path d="M22.4 963.26a6 6 0 0 1 6-6h150a6 6 0 0 1 6 6v110a6 6 0 0 1-6 6h-150a6 6 0 0 1-6-6z" stroke="#ff80df" stroke-width="2" fill="#fff0fb"/><use xlink:href="#g" transform="matrix(1,0,0,1,34.39709979451368,969.2593387219492) translate(7.292100694444443 24.59027777777778)"/><use xlink:href="#h" transform="matrix(1,0,0,1,34.39709979451368,969.2593387219492) translate(49.03472222222222 24.59027777777778)"/><use xlink:href="#i" transform="matrix(1,0,0,1,34.39709979451368,969.2593387219492) translate(13.303385416666671 56.85590277777778)"/><use xlink:href="#j" transform="matrix(1,0,0,1,34.39709979451368,969.2593387219492) translate(68.44661458333334 56.85590277777778)"/><use xlink:href="#k" transform="matrix(1,0,0,1,34.39709979451368,969.2593387219492) translate(16.91666666666667 89.12152777777777)"/><path d="M484.4 942.84a6 6 0 0 1 6-6h191.1a6 6 0 0 1 6 6v150.84a6 6 0 0 1-6 6H490.4a6 6 0 0 1-6-6z" stroke="#ff80df" stroke-width="2" fill="#fff0fb"/><g><use xlink:href="#l" transform="matrix(1,0,0,1,496.3970997945137,948.8395591479662) translate(31.09700520833335 30.21527777777778)"/><use xlink:href="#m" transform="matrix(1,0,0,1,496.3970997945137,948.8395591479662) translate(16.60590277777777 62.48090277777778)"/><use xlink:href="#n" transform="matrix(1,0,0,1,496.3970997945137,948.8395591479662) translate(105.27777777777777 62.48090277777778)"/><use xlink:href="#o" transform="matrix(1,0,0,1,496.3970997945137,948.8395591479662) translate(124.1796875 62.48090277777778)"/><use xlink:href="#p" transform="matrix(1,0,0,1,496.3970997945137,948.8395591479662) translate(16.05794270833333 94.74652777777777)"/><use xlink:href="#q" transform="matrix(1,0,0,1,496.3970997945137,948.8395591479662) translate(82.93077256944444 94.74652777777777)"/><use xlink:href="#r" transform="matrix(1,0,0,1,496.3970997945137,948.8395591479662) translate(145.43077256944446 94.74652777777777)"/><use xlink:href="#s" transform="matrix(1,0,0,1,496.3970997945137,948.8395591479662) translate(68.09244791666667 127.01215277777777)"/></g><path d="M987.5 942.84a6 6 0 0 1 6-6h191.13a6 6 0 0 1 6 6v150.84a6 6 0 0 1-6 6H993.5a6 6 0 0 1-6-6z" stroke="#ff80df" stroke-width="2" fill="#fff0fb"/><g><use xlink:href="#t" transform="matrix(1,0,0,1,999.5119242368949,948.8395591479662) translate(21.20659722222223 43.24652777777778)"/><use xlink:href="#u" transform="matrix(1,0,0,1,999.5119242368949,948.8395591479662) translate(81.40625 43.24652777777778)"/><use xlink:href="#v" transform="matrix(1,0,0,1,999.5119242368949,948.8395591479662) translate(26.583116319444443 75.51215277777777)"/><use xlink:href="#j" transform="matrix(1,0,0,1,999.5119242368949,948.8395591479662) translate(97.16688368055556 75.51215277777777)"/><use xlink:href="#w" transform="matrix(1,0,0,1,999.5119242368949,948.8395591479662) translate(50.02061631944444 107.77777777777777)"/></g><path d="M1490.63 963.26a6 6 0 0 1 6-6h150a6 6 0 0 1 6 6v110a6 6 0 0 1-6 6h-150a6 6 0 0 1-6-6z" stroke="#ff80df" stroke-width="2" fill="#fff0fb"/><g><use xlink:href="#x" transform="matrix(1,0,0,1,1502.626748679276,969.2593387219492) translate(8.111328125 24.59027777777778)"/><use xlink:href="#y" transform="matrix(1,0,0,1,1502.626748679276,969.2593387219492) translate(62.527560763888886 24.59027777777778)"/><use xlink:href="#z" transform="matrix(1,0,0,1,1502.626748679276,969.2593387219492) translate(16.992621527777786 56.85590277777778)"/><use xlink:href="#u" transform="matrix(1,0,0,1,1502.626748679276,969.2593387219492) translate(43.62022569444445 56.85590277777778)"/><use xlink:href="#A" transform="matrix(1,0,0,1,1502.626748679276,969.2593387219492) translate(40.03407118055556 89.12152777777777)"/></g><path d="M1952.63 942.84a6 6 0 0 1 6-6h191.1a6 6 0 0 1 6 6v150.84a6 6 0 0 1-6 6h-191.1a6 6 0 0 1-6-6z" stroke="#ff80df" stroke-width="2" fill="#fff0fb"/><g><use xlink:href="#B" transform="matrix(1,0,0,1,1964.626748679276,948.8395591479662) translate(5.749782986111114 60.62152777777778)"/><use xlink:href="#C" transform="matrix(1,0,0,1,1964.626748679276,948.8395591479662) translate(46.60264756944444 60.62152777777778)"/><use xlink:href="#D" transform="matrix(1,0,0,1,1964.626748679276,948.8395591479662) translate(147.79622395833334 60.62152777777778)"/><use xlink:href="#E" transform="matrix(1,0,0,1,1964.626748679276,948.8395591479662) translate(2.1744791666666714 92.88715277777777)"/><use xlink:href="#F" transform="matrix(1,0,0,1,1964.626748679276,948.8395591479662) translate(112.02690972222221 92.88715277777777)"/></g><path d="M2455.74 963.26a6 6 0 0 1 6-6h150a6 6 0 0 1 6 6v110a6 6 0 0 1-6 6h-150a6 6 0 0 1-6-6z" stroke="#ff80df" stroke-width="2" fill="#fff0fb"/><g><use xlink:href="#G" transform="matrix(1,0,0,1,2467.741573121657,969.2593387219492) translate(14.827907986111107 24.59027777777778)"/><use xlink:href="#H" transform="matrix(1,0,0,1,2467.741573121657,969.2593387219492) translate(11.355685763888893 56.85590277777778)"/><use xlink:href="#z" transform="matrix(1,0,0,1,2467.741573121657,969.2593387219492) translate(22.786892361111114 89.12152777777777)"/><use xlink:href="#F" transform="matrix(1,0,0,1,2467.741573121657,969.2593387219492) translate(49.41449652777778 89.12152777777777)"/></g><path d="M2917.74 963.26a6 6 0 0 1 6-6h150a6 6 0 0 1 6 6v110a6 6 0 0 1-6 6h-150a6 6 0 0 1-6-6z" stroke="#ff80df" stroke-width="2" fill="#fff0fb"/><g><use xlink:href="#I" transform="matrix(1,0,0,1,2929.741573121657,969.2593387219492) translate(11.464192708333336 24.59027777777778)"/><use xlink:href="#j" transform="matrix(1,0,0,1,2929.741573121657,969.2593387219492) translate(70.28580729166667 24.59027777777778)"/><use xlink:href="#J" transform="matrix(1,0,0,1,2929.741573121657,969.2593387219492) translate(6.147352430555557 56.85590277777778)"/><use xlink:href="#K" transform="matrix(1,0,0,1,2929.741573121657,969.2593387219492) translate(61.409939236111114 56.85590277777778)"/><use xlink:href="#L" transform="matrix(1,0,0,1,2929.741573121657,969.2593387219492) translate(111.47504340277779 56.85590277777778)"/><use xlink:href="#M" transform="matrix(1,0,0,1,2929.741573121657,969.2593387219492) translate(16.970920138888893 89.12152777777777)"/></g><path d="M3499.74 978.26c22.1 0 40 17.9 40 40s-17.9 40-40 40h-80c-22.1 0-40-17.9-40-40s17.9-40 40-40z" stroke="#e08fff" stroke-width="2" fill="#f4d9ff"/><g><use xlink:href="#N" transform="matrix(1,0,0,1,3384.741573121657,983.2593387219492) translate(54.95334201388889 43.40277777777778)"/></g><path d="M-276.1 1018.26H5" stroke="#3a414a" fill="none"/><path d="M-276.1 1018.73h-.53l.03-.46-.02-.5h.53z" stroke="#3a414a" stroke-width=".05" fill="#3a414a"/><path d="M19.78 1018.26L5.5 1022.9v-9.28z" stroke="#3a414a" fill="#3a414a"/><path d="M185.9 1018.26H467" stroke="#3a414a" fill="none"/><path d="M185.9 1018.73h-.5v-.95h.5z" stroke="#3a414a" stroke-width=".05" fill="#3a414a"/><path d="M481.78 1018.26l-14.27 4.63v-9.28z" stroke="#3a414a" fill="#3a414a"/><path d="M689 1018.26h281.13" stroke="#3a414a" fill="none"/><path d="M689.02 1018.73h-.5v-.95h.5z" stroke="#3a414a" stroke-width=".05" fill="#3a414a"/><path d="M984.9 1018.26l-14.27 4.63v-9.28z" stroke="#3a414a" fill="#3a414a"/><path d="M1192.13 1018.26h281.1" stroke="#3a414a" fill="none"/><path d="M1192.14 1018.73h-.5v-.95h.5z" stroke="#3a414a" stroke-width=".05" fill="#3a414a"/><path d="M1488 1018.26l-14.26 4.63v-9.28z" stroke="#3a414a" fill="#3a414a"/><path d="M1654.13 1018.26h281.1" stroke="#3a414a" fill="none"/><path d="M1654.14 1018.73h-.5v-.95h.5z" stroke="#3a414a" stroke-width=".05" fill="#3a414a"/><path d="M1950 1018.26l-14.26 4.63v-9.28z" stroke="#3a414a" fill="#3a414a"/><path d="M2157.24 1018.26h281.12" stroke="#3a414a" fill="none"/><path d="M2157.25 1018.73h-.5v-.95h.5z" stroke="#3a414a" stroke-width=".05" fill="#3a414a"/><path d="M2453.12 1018.26l-14.26 4.63v-9.28z" stroke="#3a414a" fill="#3a414a"/><path d="M2619.24 1018.26h281.12" stroke="#3a414a" fill="none"/><path d="M2619.25 1018.73h-.5v-.95h.5z" stroke="#3a414a" stroke-width=".05" fill="#3a414a"/><path d="M2915.12 1018.26l-14.26 4.63v-9.28z" stroke="#3a414a" fill="#3a414a"/><path d="M3081.24 1018.26h281.12" stroke="#3a414a" fill="none"/><path d="M3081.25 1018.73h-.5v-.95h.5z" stroke="#3a414a" stroke-width=".05" fill="#3a414a"/><path d="M3377.12 1018.26l-14.26 4.63v-9.28z" stroke="#3a414a" fill="#3a414a"/><defs><path fill="#fff" d="M784 20c-382 0-662-292-662-764 0-473 280-766 662-766s660 293 660 766c0 472-278 764-660 764zm0-176c266 0 475-207 475-588 0-383-209-590-475-590-268 0-477 208-477 590 0 380 209 588 477 588" id="O"/><path fill="#fff" d="M158 0v-1118h174v172h12c41-113 157-188 290-188 26 0 70 2 91 3v181c-11-2-60-10-108-10-161 0-279 109-279 260V0H158" id="P"/><path fill="#fff" d="M577 24c-279 0-473-224-473-580 0-354 195-576 474-576 218 0 287 134 324 193h14v-551h180V0H922v-173h-20C865-111 790 24 577 24zm27-161c203 0 314-172 314-421 0-247-108-413-314-413-212 0-317 181-317 413 0 235 108 421 317 421" id="Q"/><path fill="#fff" d="M628 24c-324 0-524-230-524-574 0-343 198-582 503-582 237 0 487 146 487 559v75H286c9 234 145 362 343 362 132 0 231-58 273-172l174 48C1024-91 857 24 628 24zM287-650h624c-17-190-120-322-304-322-192 0-309 151-320 322" id="R"/><g id="a"><use transform="matrix(0.008173828125000001,0,0,0.008173828125000001,0,0)" xlink:href="#O"/><use transform="matrix(0.008173828125000001,0,0,0.008173828125000001,12.800214843750002,0)" xlink:href="#P"/><use transform="matrix(0.008173828125000001,0,0,0.008173828125000001,18.824326171875,0)" xlink:href="#Q"/><use transform="matrix(0.008173828125000001,0,0,0.008173828125000001,29.074306640625004,0)" xlink:href="#R"/><use transform="matrix(0.008173828125000001,0,0,0.008173828125000001,38.833857421875,0)" xlink:href="#P"/></g><path fill="#fff" d="M180 0v-1490h270l367 940c28 72 75 218 110 339 35-117 81-264 110-339l362-940h271V0h-187c2-448-5-837 7-1287-157 497-311 829-483 1287H842C666-458 514-784 354-1284c12 438 5 843 7 1284H180" id="S"/><path fill="#fff" d="M471 26C259 26 90-98 90-318c0-256 228-303 435-329 202-27 287-16 287-108 0-139-79-219-234-219-161 0-248 86-283 164l-173-57c86-203 278-265 451-265 150 0 419 46 419 395V0H815v-152h-12C765-73 660 26 471 26zm31-159c199 0 310-134 310-271v-155c-30 35-226 55-295 64-131 17-246 59-246 186 0 116 97 176 231 176" id="T"/><path fill="#fff" d="M338-670V0H158v-1118h173l1 207c72-158 192-221 342-221 226 0 378 139 378 422V0H872v-695c0-172-96-275-252-275-161 0-282 109-282 300" id="U"/><path fill="#fff" d="M611 442c-248 0-391-105-460-228l146-94c47 65 117 165 314 165 178 0 307-82 307-266v-224h-17C863-141 792-18 576-18c-268 0-472-195-472-546 0-346 197-568 476-568 216 0 288 133 326 193h17v-179h175V29c0 289-215 413-487 413zm-5-620c203 0 314-146 314-390 0-237-108-403-314-403-213 0-319 180-319 403 0 230 109 390 319 390" id="V"/><path fill="#fff" d="M158 0v-1118h175l1 205c55-151 181-225 313-225 147 0 245 90 285 228 53-141 190-228 352-228 194 0 352 125 352 384V0h-181v-749c0-161-105-225-225-225-151 0-243 103-243 244V0H807v-767c0-124-93-207-219-207-131 0-250 92-250 270V0H158" id="W"/><path fill="#fff" d="M598-1118v154H368v674c0 100 37 144 132 144 23 0 62-6 92-12L629-6c-37 13-88 20-134 20-193 0-307-107-307-290v-688H20v-154h168v-266h180v266h230" id="X"/><g id="b"><use transform="matrix(0.008173828125000001,0,0,0.008173828125000001,0,0)" xlink:href="#S"/><use transform="matrix(0.008173828125000001,0,0,0.008173828125000001,15.121582031250002,0)" xlink:href="#T"/><use transform="matrix(0.008173828125000001,0,0,0.008173828125000001,24.521484375000004,0)" xlink:href="#U"/><use transform="matrix(0.008173828125000001,0,0,0.008173828125000001,34.411816406250004,0)" xlink:href="#T"/><use transform="matrix(0.008173828125000001,0,0,0.008173828125000001,43.811718750000004,0)" xlink:href="#V"/><use transform="matrix(0.008173828125000001,0,0,0.008173828125000001,54.078046875000005,0)" xlink:href="#R"/><use transform="matrix(0.008173828125000001,0,0,0.008173828125000001,63.837597656250004,0)" xlink:href="#W"/><use transform="matrix(0.008173828125000001,0,0,0.008173828125000001,78.50144531250001,0)" xlink:href="#R"/><use transform="matrix(0.008173828125000001,0,0,0.008173828125000001,88.26099609375001,0)" xlink:href="#U"/><use transform="matrix(0.008173828125000001,0,0,0.008173828125000001,98.151328125,0)" xlink:href="#X"/></g><path fill="#fff" d="M657 26c-323 0-524-166-541-416h195c15 169 171 246 346 246 202 0 356-106 356-265 5-203-294-238-475-293-239-73-380-191-380-389 0-252 224-419 512-419 294 0 499 171 508 396H992c-17-145-151-228-328-228-193 0-321 102-321 242 0 156 175 211 284 241l149 41c160 44 422 134 422 412 0 244-197 432-541 432" id="Y"/><path fill="#fff" d="M140 405l46-156c120 36 205 19 263-150l32-93L54-1118h197c107 313 237 620 324 950 87-331 219-637 326-950h196L606 167c-68 178-176 259-334 259-64 0-113-12-132-21" id="Z"/><path fill="#fff" d="M538 24C308 24 148-78 108-271l171-41c32 123 123 178 257 178 156 0 256-77 256-169 0-77-54-128-164-154l-186-44c-203-48-300-148-300-305 0-192 176-326 414-326 230 0 351 112 402 269l-163 42c-31-80-94-158-238-158-133 0-233 69-233 162 0 83 57 129 188 160l169 40c203 48 298 149 298 302 0 196-179 339-441 339" id="aa"/><g id="c"><use transform="matrix(0.008173828125000001,0,0,0.008173828125000001,0,0)" xlink:href="#Y"/><use transform="matrix(0.008173828125000001,0,0,0.008173828125000001,10.740410156250002,0)" xlink:href="#Z"/><use transform="matrix(0.008173828125000001,0,0,0.008173828125000001,20.148486328125003,0)" xlink:href="#aa"/><use transform="matrix(0.008173828125000001,0,0,0.008173828125000001,28.984394531250004,0)" xlink:href="#X"/><use transform="matrix(0.008173828125000001,0,0,0.008173828125000001,34.297382812500004,0)" xlink:href="#R"/><use transform="matrix(0.008173828125000001,0,0,0.008173828125000001,44.05693359375,0)" xlink:href="#W"/></g><path fill="#fff" d="M180 0v-1490h528c311 0 458 177 458 395 0 191-114 278-244 313v14c139 9 302 137 302 371 0 225-148 397-499 397H180zm190-168h350c232 0 321-102 321-231 0-149-120-277-311-277H370v508zm0-668h328c160 0 286-101 286-255 0-129-87-231-280-231H370v486" id="ab"/><path fill="#fff" d="M613 24c-304 0-509-231-509-576 0-350 205-580 509-580 216 0 392 114 453 309l-173 49c-33-115-133-197-280-197-223 0-326 196-326 419 0 220 103 415 326 415 150 0 252-85 285-206l172 49C1010-95 832 24 613 24" id="ac"/><path fill="#fff" d="M158 0v-1490h180v865h22l478-493h223L593-638 1096 0H865L456-523 338-412V0H158" id="ad"/><g id="d"><use transform="matrix(0.008173828125000001,0,0,0.008173828125000001,0,0)" xlink:href="#ab"/><use transform="matrix(0.008173828125000001,0,0,0.008173828125000001,10.952929687500001,0)" xlink:href="#T"/><use transform="matrix(0.008173828125000001,0,0,0.008173828125000001,20.352832031250003,0)" xlink:href="#ac"/><use transform="matrix(0.008173828125000001,0,0,0.008173828125000001,29.916210937500004,0)" xlink:href="#ad"/><use transform="matrix(0.008173828125000001,0,0,0.008173828125000001,38.727597656250005,0)" xlink:href="#R"/><use transform="matrix(0.008173828125000001,0,0,0.008173828125000001,48.487148437500004,0)" xlink:href="#U"/><use transform="matrix(0.008173828125000001,0,0,0.008173828125000001,58.37748046875001,0)" xlink:href="#Q"/></g><path fill="#fff" d="M458 0L52-1490h194c108 439 233 855 324 1313 92-459 221-873 331-1313h216c110 438 234 854 330 1307 92-455 216-869 323-1307h196L1558 0h-221l-256-944c-26-95-50-200-73-331-22 122-44 223-73 331L680 0H458" id="ae"/><path fill="#fff" d="M613 24c-304 0-509-231-509-576 0-350 205-580 509-580 305 0 511 230 511 580 0 345-206 576-511 576zm0-161c226 0 329-195 329-415 0-222-103-419-329-419-223 0-326 196-326 419 0 220 103 415 326 415" id="af"/><path fill="#fff" d="M678-1118v154H420V0H240v-964H20v-154h220v-149c0-194 155-293 318-293 85 0 141 18 168 30l-50 154c-19-6-47-17-97-17-111 0-159 58-159 166v109h258" id="ag"/><path fill="#fff" d="M338-1490V0H158v-1490h180" id="ah"/><path fill="#fff" d="M409 0L70-1118h191c89 329 165 560 243 925 75-353 154-601 240-925h192c85 325 161 564 235 922 77-354 157-598 244-922h191L1267 0h-179c-86-307-176-590-250-913C763-588 675-308 588 0H409" id="ai"/><g id="e"><use transform="matrix(0.008173828125000001,0,0,0.008173828125000001,0,0)" xlink:href="#ae"/><use transform="matrix(0.008173828125000001,0,0,0.008173828125000001,15.644707031250004,0)" xlink:href="#af"/><use transform="matrix(0.008173828125000001,0,0,0.008173828125000001,25.682167968750004,0)" xlink:href="#P"/><use transform="matrix(0.008173828125000001,0,0,0.008173828125000001,32.24575195312501,0)" xlink:href="#ad"/><use transform="matrix(0.008173828125000001,0,0,0.008173828125000001,41.43313476562501,0)" xlink:href="#ag"/><use transform="matrix(0.008173828125000001,0,0,0.008173828125000001,47.62889648437501,0)" xlink:href="#ah"/><use transform="matrix(0.008173828125000001,0,0,0.008173828125000001,51.68311523437501,0)" xlink:href="#af"/><use transform="matrix(0.008173828125000001,0,0,0.008173828125000001,61.41814453125001,0)" xlink:href="#ai"/></g><path d="M657 26c-323 0-524-166-541-416h195c15 169 171 246 346 246 202 0 356-106 356-265 5-203-294-238-475-293-239-73-380-191-380-389 0-252 224-419 512-419 294 0 499 171 508 396H992c-17-145-151-228-328-228-193 0-321 102-321 242 0 156 175 211 284 241l149 41c160 44 422 134 422 412 0 244-197 432-541 432" id="aj"/><path d="M598-1118v154H368v674c0 100 37 144 132 144 23 0 62-6 92-12L629-6c-37 13-88 20-134 20-193 0-307-107-307-290v-688H20v-154h168v-266h180v266h230" id="ak"/><path d="M471 26C259 26 90-98 90-318c0-256 228-303 435-329 202-27 287-16 287-108 0-139-79-219-234-219-161 0-248 86-283 164l-173-57c86-203 278-265 451-265 150 0 419 46 419 395V0H815v-152h-12C765-73 660 26 471 26zm31-159c199 0 310-134 310-271v-155c-30 35-226 55-295 64-131 17-246 59-246 186 0 116 97 176 231 176" id="al"/><path d="M158 0v-1118h174v172h12c41-113 157-188 290-188 26 0 70 2 91 3v181c-11-2-60-10-108-10-161 0-279 109-279 260V0H158" id="am"/><g id="f"><use transform="matrix(0.010850694444444444,0,0,0.010850694444444444,0,0)" xlink:href="#aj"/><use transform="matrix(0.010850694444444444,0,0,0.010850694444444444,14.2578125,0)" xlink:href="#ak"/><use transform="matrix(0.010850694444444444,0,0,0.010850694444444444,21.63628472222222,0)" xlink:href="#al"/><use transform="matrix(0.010850694444444444,0,0,0.010850694444444444,34.11458333333333,0)" xlink:href="#am"/><use transform="matrix(0.010850694444444444,0,0,0.010850694444444444,42.827690972222214,0)" xlink:href="#ak"/></g><path d="M52 0l541-1490h220L1361 0h-200l-149-416H398L254 0H52zm404-582h497c-103-290-145-390-251-756-108 377-145 460-246 756" id="an"/><path d="M180 0v-1490h510c348 0 508 209 508 474 0 266-160 477-507 477H370V0H180zm190-706h312c236 0 327-133 327-310 0-176-91-307-329-307H370v617" id="ao"/><path d="M370-1490V0H180v-1490h190" id="ap"/><g id="g"><use transform="matrix(0.010850694444444444,0,0,0.010850694444444444,0,0)" xlink:href="#an"/><use transform="matrix(0.010850694444444444,0,0,0.010850694444444444,15.33203125,0)" xlink:href="#ao"/><use transform="matrix(0.010850694444444444,0,0,0.010850694444444444,29.524739583333332,0)" xlink:href="#ap"/></g><path d="M158 0v-1118h180V0H158zm91-1301c-68 0-125-53-125-119s57-119 125-119c69 0 126 53 126 119s-57 119-126 119" id="aq"/><path d="M611 442c-248 0-391-105-460-228l146-94c47 65 117 165 314 165 178 0 307-82 307-266v-224h-17C863-141 792-18 576-18c-268 0-472-195-472-546 0-346 197-568 476-568 216 0 288 133 326 193h17v-179h175V29c0 289-215 413-487 413zm-5-620c203 0 314-146 314-390 0-237-108-403-314-403-213 0-319 180-319 403 0 230 109 390 319 390" id="ar"/><path d="M628 24c-324 0-524-230-524-574 0-343 198-582 503-582 237 0 487 146 487 559v75H286c9 234 145 362 343 362 132 0 231-58 273-172l174 48C1024-91 857 24 628 24zM287-650h624c-17-190-120-322-304-322-192 0-309 151-320 322" id="as"/><path d="M538 24C308 24 148-78 108-271l171-41c32 123 123 178 257 178 156 0 256-77 256-169 0-77-54-128-164-154l-186-44c-203-48-300-148-300-305 0-192 176-326 414-326 230 0 351 112 402 269l-163 42c-31-80-94-158-238-158-133 0-233 69-233 162 0 83 57 129 188 160l169 40c203 48 298 149 298 302 0 196-179 339-441 339" id="at"/><g id="h"><use transform="matrix(0.010850694444444444,0,0,0.010850694444444444,0,0)" xlink:href="#ak"/><use transform="matrix(0.010850694444444444,0,0,0.010850694444444444,7.269965277777778,0)" xlink:href="#am"/><use transform="matrix(0.010850694444444444,0,0,0.010850694444444444,15.983072916666666,0)" xlink:href="#aq"/><use transform="matrix(0.010850694444444444,0,0,0.010850694444444444,21.36501736111111,0)" xlink:href="#ar"/><use transform="matrix(0.010850694444444444,0,0,0.010850694444444444,34.99348958333333,0)" xlink:href="#ar"/><use transform="matrix(0.010850694444444444,0,0,0.010850694444444444,48.62196180555556,0)" xlink:href="#as"/><use transform="matrix(0.010850694444444444,0,0,0.010850694444444444,61.57769097222221,0)" xlink:href="#am"/><use transform="matrix(0.010850694444444444,0,0,0.010850694444444444,69.94357638888889,0)" xlink:href="#at"/></g><path d="M481 0L54-1118h197c107 314 236 620 325 951 87-331 217-637 324-951h197L670 0H481" id="au"/><g id="i"><use transform="matrix(0.010850694444444444,0,0,0.010850694444444444,0,0)" xlink:href="#at"/><use transform="matrix(0.010850694444444444,0,0,0.010850694444444444,11.729600694444445,0)" xlink:href="#al"/><use transform="matrix(0.010850694444444444,0,0,0.010850694444444444,23.88237847222222,0)" xlink:href="#au"/><use transform="matrix(0.010850694444444444,0,0,0.010850694444444444,35.9375,0)" xlink:href="#as"/></g><path d="M613 24c-304 0-509-231-509-576 0-350 205-580 509-580 305 0 511 230 511 580 0 345-206 576-511 576zm0-161c226 0 329-195 329-415 0-222-103-419-329-419-223 0-326 196-326 419 0 220 103 415 326 415" id="av"/><path d="M577 24c-279 0-473-224-473-580 0-354 195-576 474-576 218 0 287 134 324 193h14v-551h180V0H922v-173h-20C865-111 790 24 577 24zm27-161c203 0 314-172 314-421 0-247-108-413-314-413-212 0-317 181-317 413 0 235 108 421 317 421" id="aw"/><g id="j"><use transform="matrix(0.010850694444444444,0,0,0.010850694444444444,0,0)" xlink:href="#av"/><use transform="matrix(0.010850694444444444,0,0,0.010850694444444444,13.324652777777777,0)" xlink:href="#am"/><use transform="matrix(0.010850694444444444,0,0,0.010850694444444444,21.321614583333332,0)" xlink:href="#aw"/><use transform="matrix(0.010850694444444444,0,0,0.010850694444444444,34.928385416666664,0)" xlink:href="#as"/><use transform="matrix(0.010850694444444444,0,0,0.010850694444444444,47.88411458333333,0)" xlink:href="#am"/></g><path d="M613 24c-304 0-509-231-509-576 0-350 205-580 509-580 216 0 392 114 453 309l-173 49c-33-115-133-197-280-197-223 0-326 196-326 419 0 220 103 415 326 415 150 0 252-85 285-206l172 49C1010-95 832 24 613 24" id="ax"/><path d="M158 0v-1118h175l1 205c55-151 181-225 313-225 147 0 245 90 285 228 53-141 190-228 352-228 194 0 352 125 352 384V0h-181v-749c0-161-105-225-225-225-151 0-243 103-243 244V0H807v-767c0-124-93-207-219-207-131 0-250 92-250 270V0H158" id="ay"/><path d="M338-670V0H158v-1118h173l1 207c72-158 192-221 342-221 226 0 378 139 378 422V0H872v-695c0-172-96-275-252-275-161 0-282 109-282 300" id="az"/><g id="k"><use transform="matrix(0.010850694444444444,0,0,0.010850694444444444,0,0)" xlink:href="#ax"/><use transform="matrix(0.010850694444444444,0,0,0.010850694444444444,12.6953125,0)" xlink:href="#av"/><use transform="matrix(0.010850694444444444,0,0,0.010850694444444444,26.01996527777778,0)" xlink:href="#ay"/><use transform="matrix(0.010850694444444444,0,0,0.010850694444444444,45.48611111111111,0)" xlink:href="#ay"/><use transform="matrix(0.010850694444444444,0,0,0.010850694444444444,64.95225694444444,0)" xlink:href="#al"/><use transform="matrix(0.010850694444444444,0,0,0.010850694444444444,77.43055555555556,0)" xlink:href="#az"/><use transform="matrix(0.010850694444444444,0,0,0.010850694444444444,90.55989583333333,0)" xlink:href="#aw"/></g><path d="M158 418v-1536h174v179h20c37-59 106-193 324-193 279 0 474 222 474 576 0 356-194 580-473 580-213 0-288-135-325-197h-14v591H158zm492-555c209 0 317-186 317-421 0-232-105-413-317-413-206 0-314 166-314 413 0 249 111 421 314 421" id="aA"/><path d="M338-1490V0H158v-1490h180" id="aB"/><g id="l"><use transform="matrix(0.010850694444444444,0,0,0.010850694444444444,0,0)" xlink:href="#an"/><use transform="matrix(0.010850694444444444,0,0,0.010850694444444444,15.33203125,0)" xlink:href="#aA"/><use transform="matrix(0.010850694444444444,0,0,0.010850694444444444,28.938802083333332,0)" xlink:href="#aA"/><use transform="matrix(0.010850694444444444,0,0,0.010850694444444444,42.545572916666664,0)" xlink:href="#aB"/><use transform="matrix(0.010850694444444444,0,0,0.010850694444444444,47.92751736111111,0)" xlink:href="#aq"/><use transform="matrix(0.010850694444444444,0,0,0.010850694444444444,53.30946180555556,0)" xlink:href="#ax"/><use transform="matrix(0.010850694444444444,0,0,0.010850694444444444,66.22178819444443,0)" xlink:href="#al"/><use transform="matrix(0.010850694444444444,0,0,0.010850694444444444,78.70008680555554,0)" xlink:href="#ak"/><use transform="matrix(0.010850694444444444,0,0,0.010850694444444444,85.97005208333331,0)" xlink:href="#aq"/><use transform="matrix(0.010850694444444444,0,0,0.010850694444444444,91.35199652777776,0)" xlink:href="#av"/><use transform="matrix(0.010850694444444444,0,0,0.010850694444444444,104.67664930555553,0)" xlink:href="#az"/></g><path d="M338-670V0H158v-1490h180v566c73-149 190-208 336-208 226 0 379 139 379 422V0H872v-695c0-172-96-275-252-275-161 0-282 109-282 300" id="aC"/><g id="m"><use transform="matrix(0.010850694444444444,0,0,0.010850694444444444,0,0)" xlink:href="#aC"/><use transform="matrix(0.010850694444444444,0,0,0.010850694444444444,13.140190972222221,0)" xlink:href="#al"/><use transform="matrix(0.010850694444444444,0,0,0.010850694444444444,25.618489583333332,0)" xlink:href="#az"/><use transform="matrix(0.010850694444444444,0,0,0.010850694444444444,38.74782986111111,0)" xlink:href="#aw"/><use transform="matrix(0.010850694444444444,0,0,0.010850694444444444,52.35460069444444,0)" xlink:href="#aB"/><use transform="matrix(0.010850694444444444,0,0,0.010850694444444444,57.736545138888886,0)" xlink:href="#as"/><use transform="matrix(0.010850694444444444,0,0,0.010850694444444444,70.69227430555556,0)" xlink:href="#at"/></g><g id="n"><use transform="matrix(0.010850694444444444,0,0,0.010850694444444444,0,0)" xlink:href="#aq"/><use transform="matrix(0.010850694444444444,0,0,0.010850694444444444,5.381944444444445,0)" xlink:href="#ak"/></g><g id="o"><use transform="matrix(0.010850694444444444,0,0,0.010850694444444444,0,0)" xlink:href="#al"/><use transform="matrix(0.010850694444444444,0,0,0.010850694444444444,12.47829861111111,0)" xlink:href="#az"/><use transform="matrix(0.010850694444444444,0,0,0.010850694444444444,25.60763888888889,0)" xlink:href="#aw"/></g><g id="p"><use transform="matrix(0.010850694444444444,0,0,0.010850694444444444,0,0)" xlink:href="#at"/><use transform="matrix(0.010850694444444444,0,0,0.010850694444444444,11.729600694444445,0)" xlink:href="#al"/><use transform="matrix(0.010850694444444444,0,0,0.010850694444444444,23.88237847222222,0)" xlink:href="#au"/><use transform="matrix(0.010850694444444444,0,0,0.010850694444444444,35.9375,0)" xlink:href="#as"/><use transform="matrix(0.010850694444444444,0,0,0.010850694444444444,48.893229166666664,0)" xlink:href="#at"/></g><g id="q"><use transform="matrix(0.010850694444444444,0,0,0.010850694444444444,0,0)" xlink:href="#av"/><use transform="matrix(0.010850694444444444,0,0,0.010850694444444444,13.324652777777777,0)" xlink:href="#am"/><use transform="matrix(0.010850694444444444,0,0,0.010850694444444444,21.321614583333332,0)" xlink:href="#aw"/><use transform="matrix(0.010850694444444444,0,0,0.010850694444444444,34.928385416666664,0)" xlink:href="#as"/><use transform="matrix(0.010850694444444444,0,0,0.010850694444444444,47.88411458333333,0)" xlink:href="#am"/></g><g id="r"><use transform="matrix(0.010850694444444444,0,0,0.010850694444444444,0,0)" xlink:href="#aq"/><use transform="matrix(0.010850694444444444,0,0,0.010850694444444444,5.381944444444445,0)" xlink:href="#az"/></g><path d="M784 20c-382 0-662-292-662-764 0-473 280-766 662-766s660 293 660 766c0 282-99 499-260 629l192 255h-198L1049-33C969 2 880 20 784 20zm-62-486h198l156 205c112-98 183-261 183-483 0-383-209-590-475-590-268 0-477 208-477 590 0 380 209 588 477 588 54 0 106-9 154-25" id="aD"/><path d="M180 0v-1490h190v1322h690V0H180" id="aE"/><g id="s"><use transform="matrix(0.010850694444444444,0,0,0.010850694444444444,0,0)" xlink:href="#aj"/><use transform="matrix(0.010850694444444444,0,0,0.010850694444444444,14.2578125,0)" xlink:href="#aD"/><use transform="matrix(0.010850694444444444,0,0,0.010850694444444444,31.25,0)" xlink:href="#aE"/></g><g id="t"><use transform="matrix(0.010850694444444444,0,0,0.010850694444444444,0,0)" xlink:href="#aj"/><use transform="matrix(0.010850694444444444,0,0,0.010850694444444444,14.2578125,0)" xlink:href="#as"/><use transform="matrix(0.010850694444444444,0,0,0.010850694444444444,27.213541666666664,0)" xlink:href="#az"/><use transform="matrix(0.010850694444444444,0,0,0.010850694444444444,40.34288194444444,0)" xlink:href="#aw"/></g><g id="u"><use transform="matrix(0.010850694444444444,0,0,0.010850694444444444,0,0)" xlink:href="#aw"/><use transform="matrix(0.010850694444444444,0,0,0.010850694444444444,13.606770833333332,0)" xlink:href="#av"/><use transform="matrix(0.010850694444444444,0,0,0.010850694444444444,26.931423611111104,0)" xlink:href="#ay"/><use transform="matrix(0.010850694444444444,0,0,0.010850694444444444,46.39756944444444,0)" xlink:href="#al"/><use transform="matrix(0.010850694444444444,0,0,0.010850694444444444,58.87586805555555,0)" xlink:href="#aq"/><use transform="matrix(0.010850694444444444,0,0,0.010850694444444444,64.2578125,0)" xlink:href="#az"/></g><path d="M295 13c-75 0-135-60-135-135s60-135 135-135 135 60 135 135S370 13 295 13zm0-809c-75 0-135-60-135-135s60-135 135-135 135 60 135 135-60 135-135 135" id="aF"/><g id="v"><use transform="matrix(0.010850694444444444,0,0,0.010850694444444444,0,0)" xlink:href="#as"/><use transform="matrix(0.010850694444444444,0,0,0.010850694444444444,12.52170138888889,0)" xlink:href="#au"/><use transform="matrix(0.010850694444444444,0,0,0.010850694444444444,24.576822916666664,0)" xlink:href="#as"/><use transform="matrix(0.010850694444444444,0,0,0.010850694444444444,37.53255208333333,0)" xlink:href="#az"/><use transform="matrix(0.010850694444444444,0,0,0.010850694444444444,50.66189236111111,0)" xlink:href="#ak"/><use transform="matrix(0.010850694444444444,0,0,0.010850694444444444,57.931857638888886,0)" xlink:href="#aF"/></g><g id="w"><use transform="matrix(0.010850694444444444,0,0,0.010850694444444444,0,0)" xlink:href="#ax"/><use transform="matrix(0.010850694444444444,0,0,0.010850694444444444,12.6953125,0)" xlink:href="#am"/><use transform="matrix(0.010850694444444444,0,0,0.010850694444444444,20.692274305555557,0)" xlink:href="#as"/><use transform="matrix(0.010850694444444444,0,0,0.010850694444444444,33.865017361111114,0)" xlink:href="#al"/><use transform="matrix(0.010850694444444444,0,0,0.010850694444444444,46.34331597222223,0)" xlink:href="#ak"/><use transform="matrix(0.010850694444444444,0,0,0.010850694444444444,53.39626736111112,0)" xlink:href="#as"/><use transform="matrix(0.010850694444444444,0,0,0.010850694444444444,66.35199652777779,0)" xlink:href="#aw"/></g><path d="M678-1118v154H420V0H240v-964H20v-154h220v-149c0-194 155-293 318-293 85 0 141 18 168 30l-50 154c-19-6-47-17-97-17-111 0-159 58-159 166v109h258" id="aG"/><g id="x"><use transform="matrix(0.010850694444444444,0,0,0.010850694444444444,0,0)" xlink:href="#ap"/><use transform="matrix(0.010850694444444444,0,0,0.010850694444444444,5.967881944444445,0)" xlink:href="#az"/><use transform="matrix(0.010850694444444444,0,0,0.010850694444444444,19.09722222222222,0)" xlink:href="#aG"/><use transform="matrix(0.010850694444444444,0,0,0.010850694444444444,27.32204861111111,0)" xlink:href="#am"/><use transform="matrix(0.010850694444444444,0,0,0.010850694444444444,35.68793402777778,0)" xlink:href="#al"/></g><g id="y"><use transform="matrix(0.010850694444444444,0,0,0.010850694444444444,0,0)" xlink:href="#aB"/><use transform="matrix(0.010850694444444444,0,0,0.010850694444444444,5.381944444444445,0)" xlink:href="#aq"/><use transform="matrix(0.010850694444444444,0,0,0.010850694444444444,10.76388888888889,0)" xlink:href="#at"/><use transform="matrix(0.010850694444444444,0,0,0.010850694444444444,22.493489583333336,0)" xlink:href="#ak"/><use transform="matrix(0.010850694444444444,0,0,0.010850694444444444,29.546440972222225,0)" xlink:href="#as"/><use transform="matrix(0.010850694444444444,0,0,0.010850694444444444,42.50217013888889,0)" xlink:href="#az"/><use transform="matrix(0.010850694444444444,0,0,0.010850694444444444,55.63151041666667,0)" xlink:href="#at"/></g><g id="z"><use transform="matrix(0.010850694444444444,0,0,0.010850694444444444,0,0)" xlink:href="#ak"/><use transform="matrix(0.010850694444444444,0,0,0.010850694444444444,7.052951388888888,0)" xlink:href="#av"/></g><g id="A"><use transform="matrix(0.010850694444444444,0,0,0.010850694444444444,0,0)" xlink:href="#as"/><use transform="matrix(0.010850694444444444,0,0,0.010850694444444444,12.52170138888889,0)" xlink:href="#au"/><use transform="matrix(0.010850694444444444,0,0,0.010850694444444444,24.576822916666664,0)" xlink:href="#as"/><use transform="matrix(0.010850694444444444,0,0,0.010850694444444444,37.53255208333333,0)" xlink:href="#az"/><use transform="matrix(0.010850694444444444,0,0,0.010850694444444444,50.66189236111111,0)" xlink:href="#ak"/></g><path d="M537 14c-226 0-379-139-379-422v-710h180v695c0 172 97 275 253 275 160 0 281-109 281-300v-670h181V0H879v-209C806-46 684 14 537 14" id="aH"/><g id="B"><use transform="matrix(0.010850694444444444,0,0,0.010850694444444444,0,0)" xlink:href="#ao"/><use transform="matrix(0.010850694444444444,0,0,0.010850694444444444,14.192708333333332,0)" xlink:href="#aH"/><use transform="matrix(0.010850694444444444,0,0,0.010850694444444444,27.332899305555554,0)" xlink:href="#ak"/></g><g id="C"><use transform="matrix(0.010850694444444444,0,0,0.010850694444444444,0,0)" xlink:href="#ay"/><use transform="matrix(0.010850694444444444,0,0,0.010850694444444444,19.466145833333332,0)" xlink:href="#as"/><use transform="matrix(0.010850694444444444,0,0,0.010850694444444444,32.421875,0)" xlink:href="#at"/><use transform="matrix(0.010850694444444444,0,0,0.010850694444444444,44.15147569444444,0)" xlink:href="#at"/><use transform="matrix(0.010850694444444444,0,0,0.010850694444444444,55.881076388888886,0)" xlink:href="#al"/><use transform="matrix(0.010850694444444444,0,0,0.010850694444444444,68.359375,0)" xlink:href="#ar"/><use transform="matrix(0.010850694444444444,0,0,0.010850694444444444,81.98784722222223,0)" xlink:href="#as"/></g><g id="D"><use transform="matrix(0.010850694444444444,0,0,0.010850694444444444,0,0)" xlink:href="#av"/><use transform="matrix(0.010850694444444444,0,0,0.010850694444444444,13.324652777777777,0)" xlink:href="#az"/></g><path d="M180 0v-1490h510c348 0 508 194 508 460 0 198-88 351-276 417L1256 0h-220L726-579c-117 2-238 0-356 1V0H180zm190-747h312c235 0 327-108 327-283 0-177-92-293-329-293H370v576" id="aI"/><path d="M677 24c-213 0-288-135-325-197h-20V0H158v-1490h180v551h14c37-59 106-193 324-193 279 0 474 222 474 576 0 356-194 580-473 580zm-27-161c209 0 317-186 317-421 0-232-105-413-317-413-206 0-314 166-314 413 0 249 111 421 314 421" id="aJ"/><path d="M180 0v-1490h270l367 940c28 72 75 218 110 339 35-117 81-264 110-339l362-940h271V0h-187c2-448-5-837 7-1287-157 497-311 829-483 1287H842C666-458 514-784 354-1284c12 438 5 843 7 1284H180" id="aK"/><g id="E"><use transform="matrix(0.010850694444444444,0,0,0.010850694444444444,0,0)" xlink:href="#aI"/><use transform="matrix(0.010850694444444444,0,0,0.010850694444444444,14.192708333333332,0)" xlink:href="#al"/><use transform="matrix(0.010850694444444444,0,0,0.010850694444444444,26.671006944444443,0)" xlink:href="#aJ"/><use transform="matrix(0.010850694444444444,0,0,0.010850694444444444,40.27777777777777,0)" xlink:href="#aJ"/><use transform="matrix(0.010850694444444444,0,0,0.010850694444444444,53.8845486111111,0)" xlink:href="#aq"/><use transform="matrix(0.010850694444444444,0,0,0.010850694444444444,59.26649305555554,0)" xlink:href="#ak"/><use transform="matrix(0.010850694444444444,0,0,0.010850694444444444,66.53645833333331,0)" xlink:href="#aK"/><use transform="matrix(0.010850694444444444,0,0,0.010850694444444444,86.61024305555554,0)" xlink:href="#aD"/></g><path d="M1096 418H916v-591h-14C865-111 790 24 577 24c-279 0-473-224-473-580 0-354 195-576 474-576 218 0 287 134 324 193h20v-179h174V418zM604-137c203 0 314-172 314-421 0-247-108-413-314-413-212 0-317 181-317 413 0 235 108 421 317 421" id="aL"/><g id="F"><use transform="matrix(0.010850694444444444,0,0,0.010850694444444444,0,0)" xlink:href="#aL"/><use transform="matrix(0.010850694444444444,0,0,0.010850694444444444,13.606770833333332,0)" xlink:href="#aH"/><use transform="matrix(0.010850694444444444,0,0,0.010850694444444444,26.746961805555554,0)" xlink:href="#as"/><use transform="matrix(0.010850694444444444,0,0,0.010850694444444444,39.70269097222222,0)" xlink:href="#aH"/><use transform="matrix(0.010850694444444444,0,0,0.010850694444444444,52.84288194444444,0)" xlink:href="#as"/></g><path d="M783 20c-382 0-661-292-661-764 0-473 279-766 661-766 302 0 548 182 601 489h-190c-42-204-217-313-411-313-268 0-476 208-476 590 0 381 209 588 476 588 195 0 369-110 411-313h190c-52 303-296 489-601 489" id="aM"/><g id="G"><use transform="matrix(0.010850694444444444,0,0,0.010850694444444444,0,0)" xlink:href="#aM"/><use transform="matrix(0.010850694444444444,0,0,0.010850694444444444,16.23263888888889,0)" xlink:href="#av"/><use transform="matrix(0.010850694444444444,0,0,0.010850694444444444,29.557291666666664,0)" xlink:href="#az"/><use transform="matrix(0.010850694444444444,0,0,0.010850694444444444,42.68663194444444,0)" xlink:href="#at"/><use transform="matrix(0.010850694444444444,0,0,0.010850694444444444,54.416232638888886,0)" xlink:href="#aH"/><use transform="matrix(0.010850694444444444,0,0,0.010850694444444444,67.55642361111111,0)" xlink:href="#ay"/><use transform="matrix(0.010850694444444444,0,0,0.010850694444444444,87.02256944444444,0)" xlink:href="#as"/><use transform="matrix(0.010850694444444444,0,0,0.010850694444444444,99.97829861111111,0)" xlink:href="#am"/></g><g id="H"><use transform="matrix(0.010850694444444444,0,0,0.010850694444444444,0,0)" xlink:href="#at"/><use transform="matrix(0.010850694444444444,0,0,0.010850694444444444,11.729600694444445,0)" xlink:href="#aH"/><use transform="matrix(0.010850694444444444,0,0,0.010850694444444444,24.869791666666664,0)" xlink:href="#aJ"/><use transform="matrix(0.010850694444444444,0,0,0.010850694444444444,38.4765625,0)" xlink:href="#at"/><use transform="matrix(0.010850694444444444,0,0,0.010850694444444444,50.20616319444444,0)" xlink:href="#ax"/><use transform="matrix(0.010850694444444444,0,0,0.010850694444444444,62.90147569444444,0)" xlink:href="#am"/><use transform="matrix(0.010850694444444444,0,0,0.010850694444444444,71.61458333333333,0)" xlink:href="#aq"/><use transform="matrix(0.010850694444444444,0,0,0.010850694444444444,76.99652777777777,0)" xlink:href="#aJ"/><use transform="matrix(0.010850694444444444,0,0,0.010850694444444444,90.60329861111111,0)" xlink:href="#as"/><use transform="matrix(0.010850694444444444,0,0,0.010850694444444444,103.55902777777777,0)" xlink:href="#at"/></g><path d="M140 405l46-156c120 36 205 19 263-150l32-93L54-1118h197c107 313 237 620 324 950 87-331 219-637 326-950h196L606 167c-68 178-176 259-334 259-64 0-113-12-132-21" id="aN"/><g id="I"><use transform="matrix(0.010850694444444444,0,0,0.010850694444444444,0,0)" xlink:href="#aj"/><use transform="matrix(0.010850694444444444,0,0,0.010850694444444444,14.2578125,0)" xlink:href="#aN"/><use transform="matrix(0.010850694444444444,0,0,0.010850694444444444,26.74696180555556,0)" xlink:href="#az"/><use transform="matrix(0.010850694444444444,0,0,0.010850694444444444,39.876302083333336,0)" xlink:href="#ax"/></g><g id="J"><use transform="matrix(0.010850694444444444,0,0,0.010850694444444444,0,0)" xlink:href="#aG"/><use transform="matrix(0.010850694444444444,0,0,0.010850694444444444,8.22482638888889,0)" xlink:href="#am"/><use transform="matrix(0.010850694444444444,0,0,0.010850694444444444,16.221788194444443,0)" xlink:href="#av"/><use transform="matrix(0.010850694444444444,0,0,0.010850694444444444,29.54644097222222,0)" xlink:href="#ay"/></g><g id="K"><use transform="matrix(0.010850694444444444,0,0,0.010850694444444444,0,0)" xlink:href="#aj"/><use transform="matrix(0.010850694444444444,0,0,0.010850694444444444,14.2578125,0)" xlink:href="#aD"/><use transform="matrix(0.010850694444444444,0,0,0.010850694444444444,31.25,0)" xlink:href="#aE"/></g><g id="L"><use transform="matrix(0.010850694444444444,0,0,0.010850694444444444,0,0)" xlink:href="#ak"/><use transform="matrix(0.010850694444444444,0,0,0.010850694444444444,7.052951388888888,0)" xlink:href="#av"/></g><path d="M645 0H180v-1490h484c435 0 692 280 692 742 0 466-257 748-711 748zM370-168h263c363 0 539-218 539-580 0-358-176-574-521-574H370v1154" id="aO"/><path d="M180 0v-1490h528c311 0 458 177 458 395 0 191-114 278-244 313v14c139 9 302 137 302 371 0 225-148 397-499 397H180zm190-168h350c232 0 321-102 321-231 0-149-120-277-311-277H370v508zm0-668h328c160 0 286-101 286-255 0-129-87-231-280-231H370v486" id="aP"/><g id="M"><use transform="matrix(0.010850694444444444,0,0,0.010850694444444444,0,0)" xlink:href="#aK"/><use transform="matrix(0.010850694444444444,0,0,0.010850694444444444,20.07378472222222,0)" xlink:href="#av"/><use transform="matrix(0.010850694444444444,0,0,0.010850694444444444,33.3984375,0)" xlink:href="#az"/><use transform="matrix(0.010850694444444444,0,0,0.010850694444444444,46.52777777777778,0)" xlink:href="#ar"/><use transform="matrix(0.010850694444444444,0,0,0.010850694444444444,60.15625,0)" xlink:href="#av"/><use transform="matrix(0.010850694444444444,0,0,0.010850694444444444,73.48090277777777,0)" xlink:href="#aO"/><use transform="matrix(0.010850694444444444,0,0,0.010850694444444444,89.51822916666666,0)" xlink:href="#aP"/></g><path d="M180 0v-1490h908v168H370v486h669v168H370v500h727V0H180" id="aQ"/><g id="N"><use transform="matrix(0.010850694444444444,0,0,0.010850694444444444,0,0)" xlink:href="#aQ"/><use transform="matrix(0.010850694444444444,0,0,0.010850694444444444,13.35720486111111,0)" xlink:href="#az"/><use transform="matrix(0.010850694444444444,0,0,0.010850694444444444,26.48654513888889,0)" xlink:href="#aw"/></g></defs></g></svg>